<svg xmlns="http://www.w3.org/2000/svg" viewBox="0 0 1920 1080" preserveAspectRatio="xMidYMid slice">
  <defs>
    <linearGradient id="night" x1="0" y1="0" x2="0" y2="1">
      <stop offset="0%" stop-color="#020617"/>
      <stop offset="100%" stop-color="#0f172a"/>
    </linearGradient>
    <linearGradient id="aur1" x1="0" y1="0" x2="1" y2="1">
      <stop offset="0%" stop-color="#34d399" stop-opacity="0"/>
      <stop offset="35%" stop-color="#34d399" stop-opacity="0.55"/>
      <stop offset="65%" stop-color="#8b5cf6" stop-opacity="0.45"/>
      <stop offset="100%" stop-color="#3b82f6" stop-opacity="0"/>
    </linearGradient>
    <linearGradient id="aur2" x1="1" y1="0" x2="0" y2="1">
      <stop offset="0%" stop-color="#6ee7b7" stop-opacity="0"/>
      <stop offset="50%" stop-color="#22d3ee" stop-opacity="0.35"/>
      <stop offset="100%" stop-color="#6366f1" stop-opacity="0"/>
    </linearGradient>
  </defs>
  <rect width="1920" height="1080" fill="url(#night)"/>
  <circle cx="180" cy="120" r="2" fill="#fff" opacity="0.8"/>
  <circle cx="420" cy="80" r="1.5" fill="#fff" opacity="0.6"/>
  <circle cx="680" cy="160" r="2" fill="#fff" opacity="0.7"/>
  <circle cx="920" cy="90" r="1.5" fill="#fff" opacity="0.55"/>
  <circle cx="1200" cy="140" r="2" fill="#fff" opacity="0.75"/>
  <circle cx="1480" cy="70" r="1.5" fill="#fff" opacity="0.65"/>
  <circle cx="1720" cy="130" r="2" fill="#fff" opacity="0.8"/>
  <path d="M0 280 Q480 120 960 220 T1920 180 L1920 520 Q960 380 0 480 Z" fill="url(#aur1)" opacity="0.85"/>
  <path d="M0 360 Q640 200 1280 320 T1920 260 L1920 580 Q960 440 0 560 Z" fill="url(#aur2)" opacity="0.7"/>
  <path d="M0 780 Q960 680 1920 740 L1920 1080 L0 1080 Z" fill="#0f172a"/>
  <path d="M0 860 Q480 800 960 830 T1920 810 L1920 1080 L0 1080 Z" fill="#1e293b" opacity="0.8"/>
</svg>
