<svg xmlns="http://www.w3.org/2000/svg" viewBox="0 0 1920 1080" preserveAspectRatio="xMidYMid slice">
  <defs>
    <linearGradient id="sky" x1="0" y1="0" x2="0" y2="1">
      <stop offset="0%" stop-color="#0a0618"/>
      <stop offset="45%" stop-color="#15082e"/>
      <stop offset="100%" stop-color="#07060f"/>
    </linearGradient>
    <radialGradient id="glow1" cx="30%" cy="25%" r="45%">
      <stop offset="0%" stop-color="#7c3aed" stop-opacity="0.55"/>
      <stop offset="100%" stop-color="#7c3aed" stop-opacity="0"/>
    </radialGradient>
    <radialGradient id="glow2" cx="75%" cy="35%" r="40%">
      <stop offset="0%" stop-color="#6366f1" stop-opacity="0.35"/>
      <stop offset="100%" stop-color="#6366f1" stop-opacity="0"/>
    </radialGradient>
    <linearGradient id="aurora" x1="0" y1="0" x2="1" y2="0">
      <stop offset="0%" stop-color="#a78bfa" stop-opacity="0"/>
      <stop offset="35%" stop-color="#c4b5fd" stop-opacity="0.45"/>
      <stop offset="55%" stop-color="#818cf8" stop-opacity="0.35"/>
      <stop offset="100%" stop-color="#a78bfa" stop-opacity="0"/>
    </linearGradient>
    <linearGradient id="mtn" x1="0" y1="0" x2="0" y2="1">
      <stop offset="0%" stop-color="#1a1230"/>
      <stop offset="100%" stop-color="#0c0818"/>
    </linearGradient>
  </defs>
  <rect width="1920" height="1080" fill="url(#sky)"/>
  <rect width="1920" height="1080" fill="url(#glow1)"/>
  <rect width="1920" height="1080" fill="url(#glow2)"/>
  <ellipse cx="960" cy="280" rx="720" ry="120" fill="url(#aurora)" opacity="0.9"/>
  <ellipse cx="640" cy="320" rx="480" ry="80" fill="#a78bfa" opacity="0.12"/>
  <ellipse cx="1280" cy="300" rx="520" ry="90" fill="#6366f1" opacity="0.1"/>
  <path d="M0 720 Q320 640 640 700 T1280 680 T1920 720 L1920 1080 L0 1080 Z" fill="url(#mtn)"/>
  <path d="M0 780 Q480 700 960 760 T1920 790 L1920 1080 L0 1080 Z" fill="#120e22" opacity="0.85"/>
  <circle cx="1680" cy="180" r="2" fill="#fff" opacity="0.6"/>
  <circle cx="420" cy="120" r="1.5" fill="#fff" opacity="0.4"/>
  <circle cx="880" cy="90" r="1" fill="#fff" opacity="0.5"/>
  <circle cx="1200" cy="140" r="1.5" fill="#fff" opacity="0.35"/>
  <circle cx="200" cy="200" r="1" fill="#fff" opacity="0.3"/>
</svg>
